#!OML:ASF F:\VICON\USERDATA\INSTALL\rory3\rory3.ASF
:FULLY-SPECIFIED
:DEGREES
391
root -9.17288 17.9259 12.3144 -9.54364 -45.9368 8.88273
lowerback 12.2343 0.141741 -5.99175
upperback 0.797358 -0.652011 0.124045
thorax -5.96502 -0.169192 3.62891
lowerneck -20.0307 -4.12243 -9.7269
upperneck 26.4534 -4.52112 5.78581
head 12.4676 -2.29931 3.08561
rclavicle -7.33018e-014 -1.11319e-014
rhumerus -35.9363 -15.2063 -76.8641
rradius 31.77
rwrist 9.84923
rhand -11.9131 8.77508
rfingers 7.12502
rthumb 14.1408 -20.7237
lclavicle -7.33018e-014 -1.11319e-014
lhumerus -31.8521 0.754981 84.0716
lradius 34.9944
lwrist -8.03742
lhand -15.5958 25.8458
lfingers 7.12502
lthumb 10.5901 55.5589
rfemur -27.7015 -3.65821 14.3111
rtibia 55.0583
rfoot -12.5501 -7.77884
rtoes 9.12901
lfemur 0.412053 -1.52506 -30.739
ltibia 21.6717
lfoot -12.3518 -5.37603
ltoes 7.1066
392
root -9.26616 17.9274 12.3923 -9.46568 -45.9053 8.90549
lowerback 12.249 0.07929 -6.1419
upperback 0.782244 -0.753503 0.178121
thorax -5.97604 -0.213428 3.7888
lowerneck -20.085 -4.10412 -9.59449
upperneck 26.383 -4.50226 5.69555
head 12.4425 -2.28689 3.0298
rclavicle 4.03533e-014 -1.90833e-014
rhumerus -36.0822 -15.0663 -76.8869
rradius 31.6026
rwrist 9.86186
rhand -11.9477 8.39149
rfingers 7.12502
rthumb 14.1074 -21.1096
lclavicle 4.03533e-014 -1.90833e-014
lhumerus -31.6417 0.40937 84.0964
lradius 35.4501
lwrist -7.70106
lhand -16.298 25.8464
lfingers 7.12502
lthumb 9.91266 55.593
rfemur -27.7749 -3.32006 14.2966
rtibia 52.5535
rfoot -12.9019 -7.84397
rtoes 10.4856
lfemur 1.00633 -1.3047 -30.7565
ltibia 21.2074
lfoot -12.4772 -5.14391
ltoes 5.16689
393
root -9.36161 17.9356 12.4731 -9.38917 -45.8332 9.00698
lowerback 12.1619 -0.000408798 -6.35522
upperback 0.76643 -0.87968 0.223525
thorax -5.9266 -0.27017 3.97766
lowerneck -20.1854 -4.08471 -9.59425
upperneck 26.4088 -4.47924 5.74218
head 12.4719 -2.26928 3.05163
rclavicle -1.31198e-014 7.95139e-015
rhumerus -36.1646 -15.2239 -76.7799
rradius 31.3258
rwrist 10.1923
rhand -11.8246 8.28863
rfingers 7.12502
rthumb 14.226 -21.2042
lclavicle -1.31198e-014 7.95139e-015
lhumerus -31.4964 0.314752 84.0759
lradius 35.9827
lwrist -7.53843
lhand -16.7587 25.8957
lfingers 7.12502
lthumb 9.46819 55.663
rfemur -27.8684 -3.15376 14.2482
rtibia 49.939
rfoot -12.7116 -8.04789
rtoes 9.88483
lfemur 1.59671 -1.11962 -30.848
ltibia 20.6498
lfoot -12.4922 -4.86809
ltoes 3.50669
394
root -9.4595 17.9442 12.5573 -9.21165 -45.7991 8.98254
lowerback 12.0626 -0.0629839 -6.44175
upperback 0.690749 -0.962098 0.327498
thorax -5.93901 -0.304052 4.14982
lowerneck -20.1446 -4.10456 -9.88263
upperneck 26.4019 -4.48088 5.9617
head 12.4751 -2.27152 3.1854
rclavicle -1.34428e-013 3.18055e-015
rhumerus -36.3916 -15.4601 -76.5194
rradius 31.0955
rwrist 10.4648
rhand -11.7075 8.43188
rfingers 7.12502
rthumb 14.3388 -21.053
lclavicle -1.34428e-013 3.18055e-015
lhumerus -31.4728 0.296941 84.113
lradius 36.5338
lwrist -7.46337
lhand -16.195 25.6853
lfingers 7.12502
lthumb 10.0121 55.4271
rfemur -27.9179 -3.00203 14.307
rtibia 47.2602
rfoot -12.3319 -8.38871
rtoes 9.57889
lfemur 2.26735 -1.00071 -30.8423
ltibia 19.9271
lfoot -12.2302 -4.7834
ltoes 3.45909
395
root -9.56034 17.9562 12.6432 -9.04747 -45.7483 8.96722
lowerback 11.9008 -0.104125 -6.50958
upperback 0.661669 -1.00893 0.410945
thorax -5.87111 -0.325465 4.28172
lowerneck -20.0982 -4.15603 -10.0679
upperneck 26.2476 -4.51264 6.04522
head 12.4153 -2.29111 3.24082
rclavicle -5.6753e-014 1.35174e-014
rhumerus -36.6141 -15.5647 -76.3322
rradius 30.9532
rwrist 10.5144
rhand -11.5359 8.12104
rfingers 7.12502
rthumb 14.5042 -21.352
lclavicle -5.6753e-014 1.35174e-014
lhumerus -31.3599 0.0115638 84.2215
lradius 37.0404
lwrist -7.09
lhand -16.1207 25.6165
lfingers 7.12502
lthumb 10.0837 55.3549
rfemur -27.8934 -2.75257 14.305
rtibia 44.5531
rfoot -11.9427 -8.62337
rtoes 9.84691
lfemur 3.01888 -1.00368 -30.8474
ltibia 19.0765
lfoot -11.8764 -4.75001
ltoes 3.77299
396
root -9.66019 17.969 12.7247 -8.95835 -45.6304 9.09145
lowerback 11.7177 -0.182205 -6.73649
upperback 0.682371 -1.12747 0.426098
thorax -5.72782 -0.383335 4.44128
lowerneck -20.2586 -4.16132 -9.8112
upperneck 26.1785 -4.51811 5.82633
head 12.4077 -2.29142 3.10933
rclavicle 9.44227e-015 7.15625e-015
rhumerus -36.6922 -15.7051 -76.3156
rradius 30.7514
rwrist 10.7129
rhand -11.4648 7.81793
rfingers 7.12502
rthumb 14.5727 -21.6502
lclavicle 9.44227e-015 7.15625e-015
lhumerus -31.105 -0.176724 84.1554
lradius 37.4506
lwrist -6.8251
lhand -16.1475 25.8443
lfingers 7.12502
lthumb 10.0578 55.584
rfemur -27.9033 -2.50114 14.1885
rtibia 41.8653
rfoot -11.2606 -8.81576
rtoes 9.76324
lfemur 3.76344 -0.948278 -30.9301
ltibia 18.1337
lfoot -11.5032 -4.79312
ltoes 3.71284
397
root -9.76117 17.982 12.801 -8.80222 -45.5403 9.10955
lowerback 11.576 -0.224347 -6.89484
upperback 0.661067 -1.19071 0.47359
thorax -5.65915 -0.411571 4.58853
lowerneck -20.247 -4.19742 -9.7483
upperneck 26.114 -4.57862 5.79032
head 12.3828 -2.31557 3.07324
rclavicle -3.29486e-014 0
rhumerus -36.903 -15.674 -76.2781
rradius 30.6284
rwrist 10.6104
rhand -11.5376 7.91388
rfingers 7.12502
rthumb 14.5025 -21.5593
lclavicle -3.29486e-014 0
lhumerus -30.9809 -0.312364 84.1263
lradius 37.8951
lwrist -6.82534
lhand -15.9802 25.8139
lfingers 7.12502
lthumb 10.2193 55.5457
rfemur -27.8685 -2.05468 14.1241
rtibia 39.2076
rfoot -10.4678 -8.95561
rtoes 10.7117
lfemur 4.49031 -0.719592 -30.8739
ltibia 17.1657
lfoot -11.1116 -5.01052
ltoes 4.3421
398
root -9.8645 17.9955 12.8776 -8.66526 -45.4784 9.15058
lowerback 11.3891 -0.254753 -7.00972
upperback 0.66361 -1.22887 0.507604
thorax -5.54375 -0.431443 4.69118
lowerneck -20.2324 -4.24934 -9.92527
upperneck 26.0089 -4.65207 6.00163
head 12.3559 -2.33653 3.17041
rclavicle -5.55603e-014 -1.03368e-014
rhumerus -37.1114 -15.7742 -76.2042
rradius 30.5637
rwrist 10.4767
rhand -11.6276 7.88699
rfingers 7.12502
rthumb 14.4159 -21.5924
lclavicle -5.55603e-014 -1.03368e-014
lhumerus -30.8146 -0.47517 84.1413
lradius 38.2706
lwrist -6.69173
lhand -16.2989 25.6178
lfingers 7.12502
lthumb 9.91181 55.3645
rfemur -27.7751 -1.30151 13.934
rtibia 36.6216
rfoot -9.87554 -9.00836
rtoes 13.6423
lfemur 5.21714 -0.571953 -30.8533
ltibia 16.2442
lfoot -10.7659 -5.08373
ltoes 4.58084
399
root -9.96518 18.0087 12.9597 -8.56778 -45.3655 9.16598
lowerback 11.2759 -0.348543 -7.03683
upperback 0.681266 -1.34816 0.492675
thorax -5.44559 -0.494013 4.70573
lowerneck -20.3317 -4.25501 -9.92986
upperneck 25.99 -4.66847 6.07596
head 12.372 -2.33226 3.19616
rclavicle 1.04859e-014 -1.90833e-014
rhumerus -37.2702 -15.9 -76.186
rradius 30.3931
rwrist 10.4907
rhand -11.612 8.12643
rfingers 7.12502
rthumb 14.4309 -21.3518
lclavicle 1.04859e-014 -1.90833e-014
lhumerus -30.6379 -0.700632 84.0584
lradius 38.6522
lwrist -6.33462
lhand -16.4254 25.8134
lfingers 7.12502
lthumb 9.78973 55.5659
rfemur -27.6502 -0.613615 13.7569
rtibia 34.1622
rfoot -8.87869 -9.13697
rtoes 13.3868
lfemur 6.03837 -0.554937 -30.8548
ltibia 15.3198
lfoot -10.4775 -5.08027
ltoes 3.46899
